<svg xmlns="http://www.w3.org/2000/svg" viewBox="0 0 297.32 109.85"><defs><style>.cls-1{fill:#251e1c;}</style></defs><g id="レイヤー_2" data-name="レイヤー 2"><g id="レイヤー_1-2" data-name="レイヤー 1"><path class="cls-1" d="M72.94,45.12c.67.77.67,1.75,0,3a3.46,3.46,0,0,1-2.74,2c-2.26.09-4.56.24-6.91.43l-10,.86q-2,5.26-2.16,5.55-1.44,3.89-4,11.19c-1.73,4.88-2.79,7.86-3.17,9q-7.77,21.6-8.35,23.11-.36,1.08-2,7.34A3.12,3.12,0,0,1,32,109.85a6.79,6.79,0,0,1-2.88-2.31,5.21,5.21,0,0,1-.22-3.45,47.29,47.29,0,0,1,2-7.35Q32.33,92.57,38,77.09q2.94-8,5.47-14.76c.24-.72.68-1.9,1.33-3.53s1.12-2.88,1.4-3.74c.05-.1.27-1,.65-2.67a153.78,153.78,0,0,0-28.29,6.12c-1.73,4.71-2.64,7.2-2.74,7.49A121.93,121.93,0,0,0,12,80,12,12,0,0,0,12,84.65a3.27,3.27,0,0,1,.26,1.51,1.65,1.65,0,0,1-.83,1.37,7.25,7.25,0,0,1-2.67-1.66,5.94,5.94,0,0,1-1.51-2.52,7.51,7.51,0,0,1-.21-3.17A53.93,53.93,0,0,1,8.5,71.47c.33-1,.8-2.37,1.4-4.25s1-3.26,1.33-4.17c0,0,.1-.58.29-1.59A23.27,23.27,0,0,0,6.26,62.9c-2.16.82-3.55,1.32-4.17,1.52A4.34,4.34,0,0,1,0,61a28.28,28.28,0,0,1,4.43-2.88Q7,56.79,8.71,56.06c1.15-.48,2.79-1.12,4.9-1.94a2.11,2.11,0,0,0,.32-.14,1.3,1.3,0,0,1,.33-.15,3.42,3.42,0,0,0,.36-.14L20.3,39.5c.2-.52.48-1.39.87-2.59s.69-2.11.93-2.73q.79-1.95,2-5.76t1.84-5.55c.19-.48.54-1.5,1-3.06A33.22,33.22,0,0,1,28.44,16a13.42,13.42,0,0,1,1.8-2.81A3.67,3.67,0,0,1,31,13l.82,0c.63,1.29,1.06,2.23,1.3,2.81-.43,1.68-.88,3.37-1.33,5.07s-1,3.47-1.55,5.29-1.1,3.47-1.58,4.94-1.08,3.21-1.8,5.25-1.3,3.66-1.73,4.86-1.07,3-1.91,5.26l-1.84,5A228.6,228.6,0,0,1,49.1,46.06q5.34-14.12,5.69-15.34c.43-1.3.87-2.69,1.3-4.18s.9-3.15,1.4-5,.9-3.25,1.19-4.21c.1-.29.2-.63.32-1s.23-.72.33-1,.2-.61.32-1a5.4,5.4,0,0,0,.25-1c.05-.24.32-2,.8-5.12a2.14,2.14,0,0,1,2.73-.28q1.88,2.52,1.08,6.55-.44,2.23-1.15,4.93c-.48,1.8-.86,3.14-1.15,4l-1.66,5.11q-1.21,3.78-1.44,4.29-.21.8-3.81,12.45l1,.15,10-.87A16.68,16.68,0,0,1,70,44.4,13,13,0,0,1,72.94,45.12Z"/><path class="cls-1" d="M86.9,58.51a10.1,10.1,0,0,1-1.51,6.05,30.65,30.65,0,0,1-8.49,9.22,15.61,15.61,0,0,1-5.55,2.52,8.72,8.72,0,0,1-5.15-.4,8.27,8.27,0,0,1-3.92-3.35,23,23,0,0,1-1.66-2.81q-1.08-2.44.36-6.4a16.14,16.14,0,0,1,5.4-7.49,1.84,1.84,0,0,0,.44-.47,2.46,2.46,0,0,1,.5-.54A15.85,15.85,0,0,1,70,53c2.6-1.1,4.56-.41,5.91,2.09a1.36,1.36,0,0,0,.14.36,1.77,1.77,0,0,0,.29.43,5.72,5.72,0,0,1,1,2.59,5.33,5.33,0,0,1-.25,2.56,8.31,8.31,0,0,1-1.19,2.19A7.8,7.8,0,0,1,74.16,65q-4.39,3.39-9,2.38h-.65a4.33,4.33,0,0,0-.18,2.55,2.7,2.7,0,0,0,1.77,1.34,7.64,7.64,0,0,0,4.6.28,16.47,16.47,0,0,0,6.63-3.88q5.53-5,7.27-10.44a6.59,6.59,0,0,1,.79-1A2.18,2.18,0,0,1,86.9,58.51ZM72.58,56.93a13.25,13.25,0,0,0-5.84,5.76,7,7,0,0,0,4.47-1.84A4.46,4.46,0,0,0,72.58,56.93Z"/><path class="cls-1" d="M126.43,8.83a8.79,8.79,0,0,1,1.37,3.06c.38,1.37.65,2.22.79,2.56-.14,2.21-.21,3.38-.21,3.53-.1.62-.26,1.56-.47,2.8s-.37,2.16-.47,2.74a3.64,3.64,0,0,1-1,2.45c-.29,1.58-.43,2.42-.43,2.52a27.71,27.71,0,0,0-1,2.7c-.41,1.17-.71,2-.9,2.55-.1.24-.21.5-.33.76l-.36.79c-.12.27-.24.52-.36.76s-.24.49-.36.75-.23.52-.32.76A117.3,117.3,0,0,1,115.78,50q-1.23,1.93-3.39,5.61a8.48,8.48,0,0,0-.86,2.16A19.2,19.2,0,0,0,111,60c-.14.72-.26,1.53-.36,2.41s-.17,1.59-.21,2.09-.11,1.33-.18,2.49-.14,1.87-.18,2.16c-.15,1.87-.22,2.88-.22,3a23.66,23.66,0,0,0,.29,5.54c.09.44.14.68.14.72a2,2,0,0,0-.21.9,3,3,0,0,0,.1.83c.08.24.18.54.33.9s.24.61.29.76q.29,1.08,2.16,6a5.78,5.78,0,0,0,.72,1.44c.24.29.56.75,1,1.37a8.07,8.07,0,0,1,.68,1.15c.15.15.89,1,2.23,2.52a7.92,7.92,0,0,0,4.4-.07,2.92,2.92,0,0,1,1.72,3.6,3.93,3.93,0,0,1-2.23,1.37,3,3,0,0,1-1.58,0,5.58,5.58,0,0,1-2.09-.94,23.18,23.18,0,0,1-6.19-6c-.29-.39-.69-1-1.19-1.8s-.88-1.4-1.12-1.73-.28-.67-.57-1.44a3.22,3.22,0,0,0-1.08-1.59,6.3,6.3,0,0,0-.72-2.41,6.33,6.33,0,0,1-.72-2.48,6.56,6.56,0,0,0-.72-2.67,4.83,4.83,0,0,1-.29-1.22c-.05-.43-.1-.9-.14-1.4s-.1-.93-.15-1.26a1.54,1.54,0,0,0,.22-.83,6.05,6.05,0,0,0-.11-1,5.38,5.38,0,0,1-.11-.86l.22-4.18s0-.4-.07-1.08a5.37,5.37,0,0,0-.76.62,5.47,5.47,0,0,0-.5.54l-.54.64a4.48,4.48,0,0,0-.44.58,37.42,37.42,0,0,1-7.48,7.34,7.82,7.82,0,0,1-4.11,1.66,3.05,3.05,0,0,1-3-1.3q-.22-.36-3.1-4.39c-.43-2.25-.67-3.5-.72-3.74a7.75,7.75,0,0,1-.07-2.31c.14-1,.3-2.37.47-4.24s.3-3.22.39-4c.1-.48.26-1.17.47-2.08s.35-1.44.4-1.59c.48-2.21.77-3.57.86-4.1a3.68,3.68,0,0,1,.4-1.33,4,4,0,0,0,.39-1.55,9.74,9.74,0,0,1,.65-2.67q.23-.65.54-1.83c.22-.79.43-1.5.65-2.13a11.3,11.3,0,0,1,.76-1.72,7.1,7.1,0,0,0,.28-1,4.71,4.71,0,0,1,.22-.79q.44-1.31,2-6c.43-1.3.69-2,.79-2.23.29-.77.71-2,1.26-3.85a32.22,32.22,0,0,1,1.47-4.07,21.39,21.39,0,0,0,.87-2c.29-.77.59-1.52.9-2.27l.83-2a22.18,22.18,0,0,1,2.37-4,4.13,4.13,0,0,1,3.89-1.73,2,2,0,0,1,1.37,1.16,10.76,10.76,0,0,0,.93,1.94,8.69,8.69,0,0,1,1.08,6.26,53.26,53.26,0,0,1-1,5.55,26.55,26.55,0,0,0-.58,3.09,6.82,6.82,0,0,1-.65,2.24c-.48,1-1.1,2.47-1.87,4.39s-1.27,3.14-1.51,3.67A40.67,40.67,0,0,1,101,40.55a31.79,31.79,0,0,0-2,4.21.52.52,0,0,1-.22.36,2.13,2.13,0,0,0-.79.54,3.75,3.75,0,0,0-.57,1c-.2.45-.32.73-.36.83a14.29,14.29,0,0,1-3,3.6q-.42.36-2.16,2.37a7,7,0,0,0-1.51,3.39,13,13,0,0,1-.43,2,15.63,15.63,0,0,0-.43,1.87c0,.34-.1.74-.15,1.19s-.08.91-.1,1.37a6.23,6.23,0,0,1-.18,1.19,16.52,16.52,0,0,0,0,3.2A13.55,13.55,0,0,1,89.06,71l.36,1.08a2.09,2.09,0,0,0,2.24-.29q3.81-3.39,4.32-4c1-1.06,2.68-3,5-5.9q.28-.36,4.6-6.2a15.53,15.53,0,0,0,1.95-5c.19-.68.65-2.64,1.37-5.91a8.93,8.93,0,0,1,.36-1.65c.19-.68.34-1.31.46-1.91a17.08,17.08,0,0,0,.26-1.69q.06-.44,1.08-3.6.72-2.31,1.44-5.62c.09-.53.22-1.1.39-1.73s.34-1.17.51-1.65.36-1.05.57-1.7a15.79,15.79,0,0,0,.47-1.62c.14-.43.29-.92.43-1.47s.29-1.09.43-1.62.29-1,.44-1.44a44.39,44.39,0,0,1,2.8-7.42,9.26,9.26,0,0,0,.65-1.22,5.42,5.42,0,0,1,4.18-4,3.85,3.85,0,0,1,.93.25,2.46,2.46,0,0,1,.83.58l.65.64A5.1,5.1,0,0,1,126.43,8.83ZM92.67,47.57A8.32,8.32,0,0,0,92.23,50,36,36,0,0,0,95,45.66q1.65-3,2.45-4.72c1-2.49,1.68-4.08,1.87-4.75a1.31,1.31,0,0,1,.5-.79,1.69,1.69,0,0,0,.51-1,2,2,0,0,1,.18-.83c.12-.26.26-.56.43-.9s.3-.6.39-.79a4,4,0,0,0,.22-1.26,3.05,3.05,0,0,1,.36-1.4,1.92,1.92,0,0,0,.36-.87,3.89,3.89,0,0,1,0-1.4,12.2,12.2,0,0,1,.4-1.58A11.34,11.34,0,0,0,103,24a7.93,7.93,0,0,1,.22-.82c.09-.32.16-.58.21-.8s.1-.48.15-.79a6.78,6.78,0,0,0,.07-.83,13.11,13.11,0,0,1,.21-3.45l-.21-.72-.43.57c-.39.87-.65,1.52-.8,1.95a19,19,0,0,1-.93,2.7c-.48,1.17-.82,2-1,2.55s-.49,1.46-1,2.92a26,26,0,0,0-1.12,3.49,1.71,1.71,0,0,1-.22.33.58.58,0,0,0-.14.25,5,5,0,0,0-.43,1.08A8.07,8.07,0,0,1,97.2,34c-.14.48-.35,1.08-.61,1.8l-.54,1.44c-.1.29-.33.85-.69,1.69a11.09,11.09,0,0,0-.68,2A55.65,55.65,0,0,1,92.67,47.57ZM124,14.16a.68.68,0,0,0,0-.36.56.56,0,0,0-.22-.29.74.74,0,0,0-.46-.14q-3.11,8.85-3.67,10.8-.23,1-3.1,10.58a13.13,13.13,0,0,0-.72,3.67A9.58,9.58,0,0,0,117.29,36c.19-.53.66-1.65,1.4-3.35s1.31-3,1.69-4a3.62,3.62,0,0,1,.36-.9,9.3,9.3,0,0,0,.47-1,3.62,3.62,0,0,0,.25-.86,6.55,6.55,0,0,1,.22-.8c.1-.28.18-.54.25-.75s.15-.47.22-.76a3.4,3.4,0,0,0,.11-.79,9.27,9.27,0,0,1,.21-1.15,12.52,12.52,0,0,1,.43-1.33,6.38,6.38,0,0,0,.36-1.12,5.73,5.73,0,0,0,.36-1.58A11.48,11.48,0,0,1,124,14.16Z"/><path class="cls-1" d="M142.27,56.35c.1.53.17,1,.22,1.3a5.18,5.18,0,0,1-3,2.59c-.24.1-.51.19-.82.29l-.83.25c-.24.07-.52.17-.83.29l-.83.32a3.19,3.19,0,0,0-1.44,1.3,22.57,22.57,0,0,0-1.22,2.81A17.3,17.3,0,0,1,124,75.43a3.56,3.56,0,0,1-2.84.11,4.88,4.88,0,0,1-2.34-2,4.09,4.09,0,0,1-.65-1,9.2,9.2,0,0,0-.5-.93,7.4,7.4,0,0,1-.36-6.77,20.5,20.5,0,0,1,5-7.78,5.25,5.25,0,0,0,1.08-1.65,8.81,8.81,0,0,1,3.24-4.18,3.84,3.84,0,0,1,3.6-.83,4.64,4.64,0,0,1,2.88,2.7l1.72,3.67c.72-.19,1.72-.43,3-.72s2.2-.48,2.77-.57l.94.43A3.32,3.32,0,0,1,142.27,56.35ZM123.91,70.1a18.59,18.59,0,0,0,3.89-3.7,8,8,0,0,0,1.8-3.71c-1.06-.24-2.09-.46-3.1-.65-.28-.29-.63-.62-1-1s-.68-.65-.83-.79a18.46,18.46,0,0,0-2.88,5.44,10.25,10.25,0,0,0-.79,5.07C121.73,71.23,122.71,71,123.91,70.1Zm4-12.88a3,3,0,0,0,1.48.46,7,7,0,0,0,1.83-.54c-.09-.67-.14-1-.14-1.08a2.24,2.24,0,0,0-1.15-.79C129.07,55.08,128.4,55.73,127.87,57.22Z"/><path class="cls-1" d="M223.92,24a48.43,48.43,0,0,1-.36,9.8c-.1.72-.31,2-.65,4a41.23,41.23,0,0,0-.58,4.5c-.09.77-.2,1.55-.32,2.34s-.29,1.62-.5,2.49-.42,1.6-.61,2.23-.44,1.43-.73,2.41-.52,1.74-.71,2.27a56.8,56.8,0,0,1-6.63,14.4,91.78,91.78,0,0,1-9.21,12.67q-6.5,7-11.53,10.15c-2.73,1.68-5.2,2.19-7.41,1.51a9.39,9.39,0,0,1-2.52-1.08,13.1,13.1,0,0,1-6-12A120.43,120.43,0,0,1,177.62,64c.15-.81.43-2.62.87-5.43s.76-5,1-6.52q1.65-9.8,1.87-11.73-2.1,4.61-2.16,4.82c-.34.82-1.08,2.7-2.24,5.65s-2.08,5.39-2.8,7.31-1.4,3.84-2,5.76c-.38,1.2-.77,2.46-1.15,3.78s-.76,2.65-1.12,4-.69,2.6-1,3.78-.68,2.52-1.09,4-.73,2.79-1,3.85a50.84,50.84,0,0,1-2.08,5.87,24.77,24.77,0,0,1-2.45,4.64,3.09,3.09,0,0,1-1.87-3.38,59.4,59.4,0,0,1,2.87-16.63A30.08,30.08,0,0,0,164.38,70c.38-1.66.67-2.82.86-3.5q.28-.78,3.09-9.07c1.4-4.17,2.14-6.38,2.24-6.62q2.66-6.27,6.33-14.55,1.88-4.24,3.46-7,.87-1.44,5.11-8.28l.72-.72a3.32,3.32,0,0,1,1.51.36,4.86,4.86,0,0,1,1.05.65,12.58,12.58,0,0,1,1,1.08c.46.52.76.86.91,1a2.73,2.73,0,0,1,.14,1.88,26.63,26.63,0,0,1-.86,4.24,82.06,82.06,0,0,0-2,8.86q-1.08,5.84-1.37,7.2-2.09,9.36-4.32,25.34c-.19,1.2-.34,2.45-.43,3.75s-.18,2.83-.25,4.61-.14,3-.18,3.74a11.83,11.83,0,0,0,.14,1.73Q182,88,185,87.46a13.11,13.11,0,0,0,4.89-1.88,37.63,37.63,0,0,0,5.47-4.39A74,74,0,0,0,206.5,67.51a67.86,67.86,0,0,0,9.36-21.38,124.26,124.26,0,0,0,2.59-15.63c.09-1,.2-2.38.32-4.28s.23-3.3.32-4.21.06-1.59,0-2-.11-1.1-.25-2-.24-1.59-.29-2a21.58,21.58,0,0,0-1.08-5.83,2.81,2.81,0,0,1,.94-3.75A13.47,13.47,0,0,1,220,7.61,14.18,14.18,0,0,1,223.85,17c0,.53,0,1.7,0,3.53A23.83,23.83,0,0,0,223.92,24Z"/><path class="cls-1" d="M245.3,56.35c.1.53.17,1,.22,1.3a5.19,5.19,0,0,1-3,2.59c-.25.1-.52.19-.83.29l-.83.25c-.24.07-.52.17-.83.29l-.83.32a3.19,3.19,0,0,0-1.44,1.3,22.57,22.57,0,0,0-1.22,2.81A17.3,17.3,0,0,1,227,75.43a3.56,3.56,0,0,1-2.84.11,4.88,4.88,0,0,1-2.34-2,4.09,4.09,0,0,1-.65-1,9.2,9.2,0,0,0-.5-.93,7.4,7.4,0,0,1-.36-6.77,20.5,20.5,0,0,1,5-7.78,5.25,5.25,0,0,0,1.08-1.65,8.81,8.81,0,0,1,3.24-4.18,3.84,3.84,0,0,1,3.6-.83,4.64,4.64,0,0,1,2.88,2.7l1.72,3.67c.73-.19,1.72-.43,3-.72s2.2-.48,2.77-.57l.94.43A3.32,3.32,0,0,1,245.3,56.35ZM226.94,70.1a18.59,18.59,0,0,0,3.89-3.7,8,8,0,0,0,1.8-3.71c-1.06-.24-2.09-.46-3.09-.65-.29-.29-.64-.62-1-1s-.68-.65-.83-.79a18.46,18.46,0,0,0-2.88,5.44,10.25,10.25,0,0,0-.79,5.07C224.76,71.23,225.74,71,226.94,70.1Zm4-12.88a3,3,0,0,0,1.48.46,7,7,0,0,0,1.83-.54c-.09-.67-.14-1-.14-1.08a2.24,2.24,0,0,0-1.15-.79C232.1,55.08,231.43,55.73,230.9,57.22Z"/><path class="cls-1" d="M265.61,58.51a10.17,10.17,0,0,1-1.52,6.05,30.65,30.65,0,0,1-8.49,9.22,15.54,15.54,0,0,1-5.55,2.52,8.68,8.68,0,0,1-5.14-.4A8.25,8.25,0,0,1,241,72.55a21.51,21.51,0,0,1-1.65-2.81q-1.08-2.44.36-6.4a16,16,0,0,1,5.4-7.49,1.87,1.87,0,0,0,.43-.47,2.46,2.46,0,0,1,.5-.54,15.34,15.34,0,0,1,2.67-1.8c2.59-1.1,4.56-.41,5.9,2.09a1.36,1.36,0,0,0,.14.36,1.77,1.77,0,0,0,.29.43,5.74,5.74,0,0,1,1,2.59,5.46,5.46,0,0,1-.26,2.56,8.28,8.28,0,0,1-1.18,2.19A8.06,8.06,0,0,1,252.86,65q-4.4,3.39-9,2.38h-.65a4.33,4.33,0,0,0-.18,2.55,2.7,2.7,0,0,0,1.77,1.34,7.68,7.68,0,0,0,4.61.28A16.5,16.5,0,0,0,256,67.66q5.55-5,7.27-10.44a7.5,7.5,0,0,1,.79-1A2.2,2.2,0,0,1,265.61,58.51Zm-14.33-1.58a13.23,13.23,0,0,0-5.83,5.76,7,7,0,0,0,4.46-1.84A4.46,4.46,0,0,0,251.28,56.93Z"/><path class="cls-1" d="M297.29,5a28.73,28.73,0,0,1-1.66,10.65q-.21.72-.54,1.77c-.22.69-.41,1.29-.58,1.8s-.36,1.08-.57,1.72-.42,1.25-.61,1.8-.41,1.13-.65,1.73-.48,1.17-.72,1.69a101.82,101.82,0,0,1-9.87,17.57,13.59,13.59,0,0,1-1,1.33c-.39.46-.78.92-1.19,1.37s-.78.87-1.12,1.23L277.56,49c-.48.53-.87.93-1.15,1.22l-4,4a9.06,9.06,0,0,0-2.66,4.61c-.24.82-.53,1.85-.86,3.1s-.63,2.32-.87,3.24-.49,2-.75,3.13-.47,2.27-.62,3.27a31.72,31.72,0,0,0-.5,5.91,17.45,17.45,0,0,0,1,6A9.4,9.4,0,0,1,269,84.9a18.58,18.58,0,0,1,1.4,2.27c-.53.91-1,1.44-1.55,1.58a2.39,2.39,0,0,1-1.91-.57,12,12,0,0,1-5.4-11.52c0-.34,0-1.11.08-2.31a53,53,0,0,1,1.72-12.24,74.91,74.91,0,0,1,3.39-10.44,40.12,40.12,0,0,0,1.65-4.61c.63-2,1-3.26,1.23-3.74s.31-.89.5-1.37.37-.92.54-1.33.37-.86.61-1.37.44-.92.58-1.26.91-2.3,2.3-5.9c.58-1.54.89-2.33.94-2.38q2.67-5.68,5.18-11c.29-.63.94-2,1.95-4S284,11,284.54,9.84a32.9,32.9,0,0,1,3.75-6.41,17.23,17.23,0,0,1,2.3-2.3A4.8,4.8,0,0,1,292.43.05a8.87,8.87,0,0,1,2.62.14C295.87,1.92,296.61,3.53,297.29,5Zm-4.9,4.24s-.1-.5-.29-1.36h-.5q-2.39,4-4.57,8.35t-4.47,9.43q-2.26,5.12-3.67,8.5T275,43.54l.21.18q.15.11.15.18a50.59,50.59,0,0,0,3.09-4.4c.24-.33.92-1.41,2-3.24l2.27-3.74c.41-.67,1-1.73,1.83-3.17s1.49-2.73,2-3.89,1-2.32,1.51-3.52c.19-.44.59-1.37,1.19-2.81s1.07-2.64,1.4-3.6a21.42,21.42,0,0,0,.8-2.95,9.44,9.44,0,0,1,.43-1.7A11.14,11.14,0,0,0,292.39,9.26Z"/></g></g></svg>